# Vectary OBJ Export units=mm
mtllib ground.mtl
o 000_Box
g Box
usemtl Box material_bbb269b1-1495-49ff-beed-4c5a5826a65e
v 50.000 -0.000 -50.000
v 0.000 -0.000 -50.000
v -50.000 -0.000 -50.000
v 50.000 0.000 0.000
v 0.000 0.000 0.000
v -50.000 0.000 0.000
v 50.000 0.000 50.000
v 0.000 0.000 50.000
v -50.000 0.000 50.000
v 50.000 0.500 -50.000
v 50.000 0.500 -0.000
v 50.000 0.500 50.000
v 0.000 0.500 50.000
v -50.000 0.500 50.000
v -50.000 0.500 -0.000
v -50.000 0.500 -50.000
v 50.000 1.000 -50.000
v 50.000 1.000 -0.000
v 50.000 1.000 50.000
v 0.000 1.000 50.000
v -50.000 1.000 50.000
v -50.000 1.000 -0.000
v -50.000 1.000 -50.000
v 0.000 1.000 -0.000
v 0.000 1.000 -50.000
v 0.000 0.500 -50.000
vt 1.00000 0.50000
vt 0.50000 0.50000
vt 0.50000 0.00000
vt 1.00000 0.00000
vt 0.50000 0.50000
vt 0.00000 0.50000
vt 0.00000 0.00000
vt 0.50000 0.00000
vt 1.00000 1.00000
vt 0.50000 1.00000
vt 0.50000 0.50000
vt 1.00000 0.50000
vt 0.50000 1.00000
vt 0.00000 1.00000
vt 0.00000 0.50000
vt 0.50000 0.50000
vt 1.00000 0.50000
vt 0.50000 0.50000
vt 0.50000 0.00000
vt 1.00000 0.00000
vt 0.50000 0.50000
vt 0.00000 0.50000
vt 0.00000 0.00000
vt 0.50000 0.00000
vt 1.00000 0.50000
vt 0.50000 0.50000
vt 0.50000 0.00000
vt 1.00000 0.00000
vt 0.50000 0.50000
vt 0.00000 0.50000
vt 0.00000 0.00000
vt 0.50000 0.00000
vt 1.00000 0.50000
vt 0.50000 0.50000
vt 0.50000 0.00000
vt 1.00000 0.00000
vt 0.50000 0.50000
vt 0.00000 0.50000
vt 0.00000 0.00000
vt 0.50000 0.00000
vt 1.00000 1.00000
vt 0.50000 1.00000
vt 0.50000 0.50000
vt 1.00000 0.50000
vt 0.50000 1.00000
vt 0.00000 1.00000
vt 0.00000 0.50000
vt 0.50000 0.50000
vt 1.00000 1.00000
vt 0.50000 1.00000
vt 0.50000 0.50000
vt 1.00000 0.50000
vt 0.50000 1.00000
vt 0.00000 1.00000
vt 0.00000 0.50000
vt 0.50000 0.50000
vt 1.00000 1.00000
vt 0.50000 1.00000
vt 0.50000 0.50000
vt 1.00000 0.50000
vt 0.50000 1.00000
vt 0.00000 1.00000
vt 0.00000 0.50000
vt 0.50000 0.50000
vt 1.00000 0.50000
vt 0.50000 0.50000
vt 0.50000 0.00000
vt 1.00000 0.00000
vt 0.50000 0.50000
vt 0.00000 0.50000
vt 0.00000 0.00000
vt 0.50000 0.00000
vt 1.00000 1.00000
vt 0.50000 1.00000
vt 0.50000 0.50000
vt 1.00000 0.50000
vt 0.50000 1.00000
vt 0.00000 1.00000
vt 0.00000 0.50000
vt 0.50000 0.50000
vt 0.00000 0.50000
vt 0.50000 0.50000
vt 0.50000 1.00000
vt 0.00000 1.00000
vt 0.50000 0.50000
vt 1.00000 0.50000
vt 1.00000 1.00000
vt 0.50000 1.00000
vt 0.00000 0.00000
vt 0.50000 0.00000
vt 0.50000 0.50000
vt 0.00000 0.50000
vt 0.50000 0.00000
vt 1.00000 0.00000
vt 1.00000 0.50000
vt 0.50000 0.50000
vn 0.00000 -1.00000 0.00000
vn 0.00000 -1.00000 0.00000
vn 0.00000 -1.00000 0.00000
vn 0.00000 -1.00000 0.00000
vn 0.00000 -1.00000 0.00000
vn 0.00000 -1.00000 0.00000
vn 0.00000 -1.00000 0.00000
vn 0.00000 -1.00000 0.00000
vn 0.00000 -1.00000 0.00000
vn 0.00000 -1.00000 0.00000
vn 0.00000 -1.00000 0.00000
vn 0.00000 -1.00000 0.00000
vn 0.00000 -1.00000 0.00000
vn 0.00000 -1.00000 0.00000
vn 0.00000 -1.00000 0.00000
vn 0.00000 -1.00000 0.00000
vn 1.00000 0.00000 0.00000
vn 1.00000 0.00000 0.00000
vn 1.00000 0.00000 0.00000
vn 1.00000 0.00000 0.00000
vn 1.00000 0.00000 0.00000
vn 1.00000 0.00000 0.00000
vn 1.00000 0.00000 0.00000
vn 1.00000 0.00000 0.00000
vn 0.00000 0.00000 1.00000
vn 0.00000 0.00000 1.00000
vn 0.00000 0.00000 1.00000
vn 0.00000 0.00000 1.00000
vn 0.00000 0.00000 1.00000
vn 0.00000 0.00000 1.00000
vn 0.00000 0.00000 1.00000
vn 0.00000 0.00000 1.00000
vn -1.00000 0.00000 0.00000
vn -1.00000 0.00000 0.00000
vn -1.00000 0.00000 0.00000
vn -1.00000 0.00000 0.00000
vn -1.00000 0.00000 0.00000
vn -1.00000 0.00000 0.00000
vn -1.00000 0.00000 0.00000
vn -1.00000 0.00000 0.00000
vn 1.00000 0.00000 0.00000
vn 1.00000 0.00000 0.00000
vn 1.00000 0.00000 0.00000
vn 1.00000 0.00000 0.00000
vn 1.00000 0.00000 0.00000
vn 1.00000 0.00000 0.00000
vn 1.00000 0.00000 0.00000
vn 1.00000 0.00000 0.00000
vn 0.00000 0.00000 1.00000
vn 0.00000 0.00000 1.00000
vn 0.00000 0.00000 1.00000
vn 0.00000 0.00000 1.00000
vn 0.00000 0.00000 1.00000
vn 0.00000 0.00000 1.00000
vn 0.00000 0.00000 1.00000
vn 0.00000 0.00000 1.00000
vn -1.00000 0.00000 0.00000
vn -1.00000 0.00000 0.00000
vn -1.00000 0.00000 0.00000
vn -1.00000 0.00000 0.00000
vn -1.00000 0.00000 0.00000
vn -1.00000 0.00000 0.00000
vn -1.00000 0.00000 0.00000
vn -1.00000 0.00000 0.00000
vn 0.00000 1.00000 -0.00000
vn 0.00000 1.00000 -0.00000
vn 0.00000 1.00000 -0.00000
vn 0.00000 1.00000 -0.00000
vn 0.00000 1.00000 -0.00000
vn 0.00000 1.00000 -0.00000
vn 0.00000 1.00000 -0.00000
vn 0.00000 1.00000 -0.00000
vn 0.00000 1.00000 -0.00000
vn 0.00000 1.00000 -0.00000
vn 0.00000 1.00000 -0.00000
vn 0.00000 1.00000 -0.00000
vn 0.00000 1.00000 -0.00000
vn 0.00000 1.00000 -0.00000
vn 0.00000 1.00000 -0.00000
vn 0.00000 1.00000 -0.00000
vn 0.00000 -0.00000 -1.00000
vn 0.00000 -0.00000 -1.00000
vn 0.00000 -0.00000 -1.00000
vn 0.00000 -0.00000 -1.00000
vn 0.00000 -0.00000 -1.00000
vn 0.00000 -0.00000 -1.00000
vn 0.00000 -0.00000 -1.00000
vn 0.00000 -0.00000 -1.00000
vn 0.00000 -0.00000 -1.00000
vn 0.00000 -0.00000 -1.00000
vn 0.00000 -0.00000 -1.00000
vn 0.00000 -0.00000 -1.00000
vn 0.00000 -0.00000 -1.00000
vn 0.00000 -0.00000 -1.00000
vn 0.00000 -0.00000 -1.00000
vn 0.00000 -0.00000 -1.00000
f 1/4/3 4/1/1 5/2/4 2/3/2 
f 2/8/7 5/5/5 6/6/8 3/7/6 
f 4/12/11 7/9/9 8/10/12 5/11/10 
f 5/16/15 8/13/13 9/14/16 6/15/14 
f 1/20/19 10/17/17 11/18/20 4/19/18 
f 4/24/23 11/21/21 12/22/24 7/23/22 
f 7/28/27 12/25/25 13/26/28 8/27/26 
f 8/32/31 13/29/29 14/30/32 9/31/30 
f 9/36/35 14/33/33 15/34/36 6/35/34 
f 6/40/39 15/37/37 16/38/40 3/39/38 
f 10/44/43 17/41/41 18/42/44 11/43/42 
f 11/48/47 18/45/45 19/46/48 12/47/46 
f 12/52/51 19/49/49 20/50/52 13/51/50 
f 13/56/55 20/53/53 21/54/56 14/55/54 
f 14/60/59 21/57/57 22/58/60 15/59/58 
f 15/64/63 22/61/61 23/62/64 16/63/62 
f 19/68/67 18/65/65 24/66/68 20/67/66 
f 20/72/71 24/69/69 22/70/72 21/71/70 
f 18/76/75 17/73/73 25/74/76 24/75/74 
f 24/80/79 25/77/77 23/78/80 22/79/78 
f 17/84/83 10/81/81 26/82/84 25/83/82 
f 25/88/87 26/85/85 16/86/88 23/87/86 
f 10/92/91 1/89/89 2/90/92 26/91/90 
f 26/96/95 2/93/93 3/94/96 16/95/94 
