# Vectary OBJ Export units=mm
mtllib puck.mtl
o 000_Cylinder
g Cylinder
usemtl Cylinder material_93967cc1-4e5a-4ca4-a8c2-03824a049bcf
v 0.000 0.000 0.000
v 50.000 0.000 0.000
v 46.194 -0.000 -19.134
v 35.355 -0.000 -35.355
v 19.134 -0.000 -46.194
v 0.000 -0.000 -50.000
v -19.134 -0.000 -46.194
v -35.355 -0.000 -35.355
v -46.194 -0.000 -19.134
v -50.000 -0.000 -0.000
v -46.194 0.000 19.134
v -35.355 0.000 35.355
v -19.134 0.000 46.194
v -0.000 0.000 50.000
v 19.134 0.000 46.194
v 35.355 0.000 35.355
v 46.194 0.000 19.134
v 50.000 32.000 -0.000
v 46.194 32.000 -19.134
v 35.355 32.000 -35.355
v 19.134 32.000 -46.194
v 0.000 32.000 -50.000
v -19.134 32.000 -46.194
v -35.355 32.000 -35.355
v -46.194 32.000 -19.134
v -50.000 32.000 -0.000
v -46.194 32.000 19.134
v -35.355 32.000 35.355
v -19.134 32.000 46.194
v -0.000 32.000 50.000
v 19.134 32.000 46.194
v 35.355 32.000 35.355
v 46.194 32.000 19.134
v 0.000 32.000 -0.000
vt 0.50000 0.50000
vt 0.96194 0.30866
vt 1.00000 0.50000
vt 0.50000 0.50000
vt 0.85355 0.14645
vt 0.96194 0.30866
vt 0.50000 0.50000
vt 0.69134 0.03806
vt 0.85355 0.14645
vt 0.50000 0.50000
vt 0.50000 0.00000
vt 0.69134 0.03806
vt 0.50000 0.50000
vt 0.30866 0.03806
vt 0.50000 0.00000
vt 0.50000 0.50000
vt 0.14645 0.14645
vt 0.30866 0.03806
vt 0.50000 0.50000
vt 0.03806 0.30866
vt 0.14645 0.14645
vt 0.50000 0.50000
vt 0.00000 0.50000
vt 0.03806 0.30866
vt 0.50000 0.50000
vt 0.03806 0.69134
vt 0.00000 0.50000
vt 0.50000 0.50000
vt 0.14645 0.85355
vt 0.03806 0.69134
vt 0.50000 0.50000
vt 0.30866 0.96194
vt 0.14645 0.85355
vt 0.50000 0.50000
vt 0.50000 1.00000
vt 0.30866 0.96194
vt 0.50000 0.50000
vt 0.69134 0.96194
vt 0.50000 1.00000
vt 0.50000 0.50000
vt 0.85355 0.85355
vt 0.69134 0.96194
vt 0.50000 0.50000
vt 0.96194 0.69134
vt 0.85355 0.85355
vt 0.50000 0.50000
vt 1.00000 0.50000
vt 0.96194 0.69134
vt 0.00000 0.00000
vt 0.06250 0.00000
vt 0.06250 1.00000
vt 0.00000 1.00000
vt 0.06250 0.00000
vt 0.12500 0.00000
vt 0.12500 1.00000
vt 0.06250 1.00000
vt 0.12500 0.00000
vt 0.18750 0.00000
vt 0.18750 1.00000
vt 0.12500 1.00000
vt 0.18750 0.00000
vt 0.25000 0.00000
vt 0.25000 1.00000
vt 0.18750 1.00000
vt 0.25000 0.00000
vt 0.31250 0.00000
vt 0.31250 1.00000
vt 0.25000 1.00000
vt 0.31250 0.00000
vt 0.37500 0.00000
vt 0.37500 1.00000
vt 0.31250 1.00000
vt 0.37500 0.00000
vt 0.43750 0.00000
vt 0.43750 1.00000
vt 0.37500 1.00000
vt 0.43750 0.00000
vt 0.50000 0.00000
vt 0.50000 1.00000
vt 0.43750 1.00000
vt 0.50000 0.00000
vt 0.56250 0.00000
vt 0.56250 1.00000
vt 0.50000 1.00000
vt 0.56250 0.00000
vt 0.62500 0.00000
vt 0.62500 1.00000
vt 0.56250 1.00000
vt 0.62500 0.00000
vt 0.68750 0.00000
vt 0.68750 1.00000
vt 0.62500 1.00000
vt 0.68750 0.00000
vt 0.75000 0.00000
vt 0.75000 1.00000
vt 0.68750 1.00000
vt 0.75000 0.00000
vt 0.81250 0.00000
vt 0.81250 1.00000
vt 0.75000 1.00000
vt 0.81250 0.00000
vt 0.87500 0.00000
vt 0.87500 1.00000
vt 0.81250 1.00000
vt 0.87500 0.00000
vt 0.93750 0.00000
vt 0.93750 1.00000
vt 0.87500 1.00000
vt 0.93750 0.00000
vt 1.00000 0.00000
vt 1.00000 1.00000
vt 0.93750 1.00000
vt 1.00000 0.50000
vt 0.96194 0.69134
vt 0.50000 0.50000
vt 0.96194 0.69134
vt 0.85355 0.85355
vt 0.50000 0.50000
vt 0.85355 0.85355
vt 0.69134 0.96194
vt 0.50000 0.50000
vt 0.69134 0.96194
vt 0.50000 1.00000
vt 0.50000 0.50000
vt 0.50000 1.00000
vt 0.30866 0.96194
vt 0.50000 0.50000
vt 0.30866 0.96194
vt 0.14645 0.85355
vt 0.50000 0.50000
vt 0.14645 0.85355
vt 0.03806 0.69134
vt 0.50000 0.50000
vt 0.03806 0.69134
vt 0.00000 0.50000
vt 0.50000 0.50000
vt 0.00000 0.50000
vt 0.03806 0.30866
vt 0.50000 0.50000
vt 0.03806 0.30866
vt 0.14645 0.14645
vt 0.50000 0.50000
vt 0.14645 0.14645
vt 0.30866 0.03806
vt 0.50000 0.50000
vt 0.30866 0.03806
vt 0.50000 0.00000
vt 0.50000 0.50000
vt 0.50000 0.00000
vt 0.69134 0.03806
vt 0.50000 0.50000
vt 0.69134 0.03806
vt 0.85355 0.14645
vt 0.50000 0.50000
vt 0.85355 0.14645
vt 0.96194 0.30866
vt 0.50000 0.50000
vt 0.96194 0.30866
vt 1.00000 0.50000
vt 0.50000 0.50000
vn 0.00000 -1.00000 0.00000
vn 0.00000 -1.00000 0.00000
vn 0.00000 -1.00000 0.00000
vn 0.00000 -1.00000 0.00000
vn 0.00000 -1.00000 0.00000
vn 0.00000 -1.00000 0.00000
vn 0.00000 -1.00000 0.00000
vn 0.00000 -1.00000 0.00000
vn 0.00000 -1.00000 0.00000
vn 0.00000 -1.00000 0.00000
vn 0.00000 -1.00000 0.00000
vn 0.00000 -1.00000 0.00000
vn 0.00000 -1.00000 0.00000
vn 0.00000 -1.00000 0.00000
vn 0.00000 -1.00000 0.00000
vn 0.00000 -1.00000 0.00000
vn 0.00000 -1.00000 0.00000
vn 0.00000 -1.00000 0.00000
vn 0.00000 -1.00000 0.00000
vn 0.00000 -1.00000 0.00000
vn 0.00000 -1.00000 0.00000
vn 0.00000 -1.00000 0.00000
vn 0.00000 -1.00000 0.00000
vn 0.00000 -1.00000 0.00000
vn 0.00000 -1.00000 0.00000
vn 0.00000 -1.00000 0.00000
vn 0.00000 -1.00000 0.00000
vn 0.00000 -1.00000 0.00000
vn 0.00000 -1.00000 0.00000
vn 0.00000 -1.00000 0.00000
vn 0.00000 -1.00000 0.00000
vn 0.00000 -1.00000 0.00000
vn 0.00000 -1.00000 0.00000
vn 0.00000 -1.00000 0.00000
vn 0.00000 -1.00000 0.00000
vn 0.00000 -1.00000 0.00000
vn 0.00000 -1.00000 0.00000
vn 0.00000 -1.00000 0.00000
vn 0.00000 -1.00000 0.00000
vn 0.00000 -1.00000 0.00000
vn 0.00000 -1.00000 0.00000
vn 0.00000 -1.00000 0.00000
vn 0.00000 -1.00000 0.00000
vn 0.00000 -1.00000 0.00000
vn 0.00000 -1.00000 0.00000
vn 0.00000 -1.00000 0.00000
vn 0.00000 -1.00000 0.00000
vn 0.00000 -1.00000 0.00000
vn 1.00000 0.00000 0.00000
vn 0.92388 -0.00000 -0.38268
vn 1.00000 0.00000 0.00000
vn 0.92388 -0.00000 -0.38268
vn 0.92388 -0.00000 -0.38268
vn 0.70711 -0.00000 -0.70711
vn 0.92388 -0.00000 -0.38268
vn 0.70711 -0.00000 -0.70711
vn 0.70711 -0.00000 -0.70711
vn 0.38268 -0.00000 -0.92388
vn 0.70711 -0.00000 -0.70711
vn 0.38268 -0.00000 -0.92388
vn 0.38268 -0.00000 -0.92388
vn 0.00000 -0.00000 -1.00000
vn 0.38268 -0.00000 -0.92388
vn 0.00000 -0.00000 -1.00000
vn 0.00000 -0.00000 -1.00000
vn -0.38268 -0.00000 -0.92388
vn 0.00000 -0.00000 -1.00000
vn -0.38268 -0.00000 -0.92388
vn -0.38268 -0.00000 -0.92388
vn -0.70711 -0.00000 -0.70711
vn -0.38268 -0.00000 -0.92388
vn -0.70711 -0.00000 -0.70711
vn -0.70711 -0.00000 -0.70711
vn -0.92388 -0.00000 -0.38268
vn -0.70711 -0.00000 -0.70711
vn -0.92388 -0.00000 -0.38268
vn -0.92388 -0.00000 -0.38268
vn -1.00000 -0.00000 -0.00000
vn -0.92388 -0.00000 -0.38268
vn -1.00000 -0.00000 -0.00000
vn -1.00000 -0.00000 -0.00000
vn -0.92388 0.00000 0.38268
vn -1.00000 -0.00000 -0.00000
vn -0.92388 0.00000 0.38268
vn -0.92388 0.00000 0.38268
vn -0.70711 0.00000 0.70711
vn -0.92388 0.00000 0.38268
vn -0.70711 0.00000 0.70711
vn -0.70711 0.00000 0.70711
vn -0.38268 0.00000 0.92388
vn -0.70711 0.00000 0.70711
vn -0.38268 0.00000 0.92388
vn -0.38268 0.00000 0.92388
vn -0.00000 0.00000 1.00000
vn -0.38268 0.00000 0.92388
vn -0.00000 0.00000 1.00000
vn -0.00000 0.00000 1.00000
vn 0.38268 0.00000 0.92388
vn -0.00000 0.00000 1.00000
vn 0.38268 0.00000 0.92388
vn 0.38268 0.00000 0.92388
vn 0.70711 0.00000 0.70711
vn 0.38268 0.00000 0.92388
vn 0.70711 0.00000 0.70711
vn 0.70711 0.00000 0.70711
vn 0.92388 0.00000 0.38268
vn 0.70711 0.00000 0.70711
vn 0.92388 0.00000 0.38268
vn 0.92388 0.00000 0.38268
vn 1.00000 0.00000 0.00000
vn 0.92388 0.00000 0.38268
vn 1.00000 0.00000 0.00000
vn 0.00000 1.00000 -0.00000
vn 0.00000 1.00000 -0.00000
vn 0.00000 1.00000 -0.00000
vn 0.00000 1.00000 -0.00000
vn 0.00000 1.00000 -0.00000
vn 0.00000 1.00000 -0.00000
vn 0.00000 1.00000 -0.00000
vn 0.00000 1.00000 -0.00000
vn 0.00000 1.00000 -0.00000
vn 0.00000 1.00000 -0.00000
vn 0.00000 1.00000 -0.00000
vn 0.00000 1.00000 -0.00000
vn 0.00000 1.00000 -0.00000
vn 0.00000 1.00000 -0.00000
vn 0.00000 1.00000 -0.00000
vn 0.00000 1.00000 -0.00000
vn 0.00000 1.00000 -0.00000
vn 0.00000 1.00000 -0.00000
vn 0.00000 1.00000 -0.00000
vn 0.00000 1.00000 -0.00000
vn 0.00000 1.00000 -0.00000
vn 0.00000 1.00000 -0.00000
vn 0.00000 1.00000 -0.00000
vn 0.00000 1.00000 -0.00000
vn 0.00000 1.00000 -0.00000
vn 0.00000 1.00000 -0.00000
vn 0.00000 1.00000 -0.00000
vn 0.00000 1.00000 -0.00000
vn 0.00000 1.00000 -0.00000
vn 0.00000 1.00000 -0.00000
vn 0.00000 1.00000 -0.00000
vn 0.00000 1.00000 -0.00000
vn 0.00000 1.00000 -0.00000
vn 0.00000 1.00000 -0.00000
vn 0.00000 1.00000 -0.00000
vn 0.00000 1.00000 -0.00000
vn 0.00000 1.00000 -0.00000
vn 0.00000 1.00000 -0.00000
vn 0.00000 1.00000 -0.00000
vn 0.00000 1.00000 -0.00000
vn 0.00000 1.00000 -0.00000
vn 0.00000 1.00000 -0.00000
vn 0.00000 1.00000 -0.00000
vn 0.00000 1.00000 -0.00000
vn 0.00000 1.00000 -0.00000
vn 0.00000 1.00000 -0.00000
vn 0.00000 1.00000 -0.00000
vn 0.00000 1.00000 -0.00000
f 1/1/1 3/2/2 2/3/3 
f 1/4/4 4/5/5 3/6/6 
f 1/7/7 5/8/8 4/9/9 
f 1/10/10 6/11/11 5/12/12 
f 1/13/13 7/14/14 6/15/15 
f 1/16/16 8/17/17 7/18/18 
f 1/19/19 9/20/20 8/21/21 
f 1/22/22 10/23/23 9/24/24 
f 1/25/25 11/26/26 10/27/27 
f 1/28/28 12/29/29 11/30/30 
f 1/31/31 13/32/32 12/33/33 
f 1/34/34 14/35/35 13/36/36 
f 1/37/37 15/38/38 14/39/39 
f 1/40/40 16/41/41 15/42/42 
f 1/43/43 17/44/44 16/45/45 
f 1/46/46 2/47/47 17/48/48 
f 18/52/51 2/49/49 3/50/52 19/51/50 
f 19/56/55 3/53/53 4/54/56 20/55/54 
f 20/60/59 4/57/57 5/58/60 21/59/58 
f 21/64/63 5/61/61 6/62/64 22/63/62 
f 22/68/67 6/65/65 7/66/68 23/67/66 
f 23/72/71 7/69/69 8/70/72 24/71/70 
f 24/76/75 8/73/73 9/74/76 25/75/74 
f 25/80/79 9/77/77 10/78/80 26/79/78 
f 26/84/83 10/81/81 11/82/84 27/83/82 
f 27/88/87 11/85/85 12/86/88 28/87/86 
f 28/92/91 12/89/89 13/90/92 29/91/90 
f 29/96/95 13/93/93 14/94/96 30/95/94 
f 30/100/99 14/97/97 15/98/100 31/99/98 
f 31/104/103 15/101/101 16/102/104 32/103/102 
f 32/108/107 16/105/105 17/106/108 33/107/106 
f 33/112/111 17/109/109 2/110/112 18/111/110 
f 18/113/113 19/114/114 34/115/115 
f 19/116/116 20/117/117 34/118/118 
f 20/119/119 21/120/120 34/121/121 
f 21/122/122 22/123/123 34/124/124 
f 22/125/125 23/126/126 34/127/127 
f 23/128/128 24/129/129 34/130/130 
f 24/131/131 25/132/132 34/133/133 
f 25/134/134 26/135/135 34/136/136 
f 26/137/137 27/138/138 34/139/139 
f 27/140/140 28/141/141 34/142/142 
f 28/143/143 29/144/144 34/145/145 
f 29/146/146 30/147/147 34/148/148 
f 30/149/149 31/150/150 34/151/151 
f 31/152/152 32/153/153 34/154/154 
f 32/155/155 33/156/156 34/157/157 
f 33/158/158 18/159/159 34/160/160 
